<?xml version="1.0" standalone="no"?>
<!DOCTYPE svg PUBLIC "-//W3C//DTD SVG 20010904//EN"
 "http://www.w3.org/TR/2001/REC-SVG-20010904/DTD/svg10.dtd">
<svg version="1.0" xmlns="http://www.w3.org/2000/svg"
 width="822.000000pt" height="555.000000pt" viewBox="0 0 822.000000 555.000000"
 preserveAspectRatio="xMidYMid meet">

<g transform="translate(0.000000,555.000000) scale(0.100000,-0.100000)"
fill="#000000" stroke="none">
<path d="M4645 5390 c-125 -26 -230 -95 -302 -200 -33 -49 -77 -146 -87 -196
l-7 -31 -127 -6 c-254 -11 -392 -89 -392 -220 0 -59 18 -96 82 -163 l50 -53
-58 -32 c-72 -41 -173 -135 -229 -214 -43 -60 -95 -165 -95 -191 0 -11 -37
-34 -54 -34 -2 0 -6 19 -10 42 -9 57 -102 147 -218 211 -48 26 -90 47 -95 47
-5 0 -14 20 -21 44 -26 98 -124 180 -277 232 -70 24 -96 28 -205 28 -106 1
-136 -3 -198 -23 -89 -29 -164 -81 -214 -146 -51 -68 -69 -122 -78 -240 -6
-79 -15 -119 -44 -192 -49 -124 -67 -218 -67 -338 1 -200 68 -340 188 -390 65
-27 140 -12 199 39 l36 31 58 -28 c107 -53 289 -46 427 18 31 14 58 24 60 21
2 -2 44 -68 93 -147 l89 -144 -317 -7 c-1106 -23 -2349 -84 -2412 -118 -32
-18 -80 -190 -80 -288 0 -24 -13 -84 -30 -132 -64 -192 -76 -454 -30 -635 21
-81 74 -204 110 -254 23 -34 18 -41 -30 -41 -20 0 -43 -6 -52 -13 -34 -27 -78
-187 -78 -285 0 -24 -13 -84 -30 -132 -63 -191 -76 -453 -30 -635 31 -125 102
-258 176 -332 l62 -63 3770 0 3770 0 57 85 c115 174 149 307 149 595 -1 118
-5 215 -13 245 -6 28 -16 118 -21 200 -10 172 -25 226 -77 280 -39 40 -69 55
-113 55 l-29 0 39 78 c73 143 107 350 96 577 -3 72 -11 150 -16 175 -6 25 -15
113 -20 195 -5 92 -15 168 -25 197 -21 59 -85 126 -128 133 -27 4 -272 22
-667 50 -418 30 -1717 74 -2180 75 l-105 0 50 24 c28 13 80 44 118 70 59 40
74 46 120 46 132 0 265 68 308 156 17 36 20 57 17 102 -5 51 -2 61 23 93 74
94 99 208 61 278 -21 38 -73 71 -113 71 -21 0 -31 9 -48 40 l-20 39 83 84
c151 153 179 271 89 368 -22 24 -25 36 -26 125 -2 86 -6 107 -30 156 -36 73
-111 141 -186 169 -58 20 -58 21 -70 73 -26 117 -141 255 -263 317 -115 58
-255 81 -363 59z m249 -96 c143 -49 261 -163 300 -291 7 -21 4 -23 -31 -23
-50 0 -76 -19 -71 -51 3 -22 9 -25 78 -31 196 -20 297 -105 308 -259 l5 -69
-57 31 c-69 38 -110 37 -114 -3 -3 -24 3 -30 60 -59 83 -42 145 -85 164 -114
40 -62 8 -138 -104 -249 l-70 -69 -39 31 c-96 77 -222 97 -333 54 -30 -12 -56
-22 -56 -22 -1 0 -9 20 -18 45 -10 24 -31 56 -48 70 l-31 26 26 117 c59 271
80 393 69 404 -27 27 -39 -3 -76 -189 -20 -103 -44 -217 -52 -253 l-15 -65
-58 -2 c-33 0 -68 -4 -79 -7 -20 -7 -20 -5 4 62 13 37 30 111 38 163 19 121
49 476 42 495 -7 17 -35 19 -41 2 -2 -7 -11 -101 -20 -208 -16 -209 -38 -358
-61 -424 -21 -58 -63 -126 -78 -126 -7 0 -35 27 -62 61 -120 150 -282 228
-451 217 l-72 -5 -56 50 c-93 82 -110 145 -54 198 51 47 142 70 313 77 l150 7
35 105 c65 189 161 288 314 320 58 12 182 4 241 -16z m-673 -850 c76 -36 172
-122 235 -210 49 -69 53 -84 24 -84 -12 0 -39 -17 -62 -38 -37 -35 -42 -45
-46 -95 -2 -31 0 -69 6 -85 10 -29 10 -30 -31 -36 -57 -9 -121 -49 -146 -90
-27 -44 -28 -123 -2 -175 36 -69 133 -136 235 -162 25 -6 46 -15 46 -18 0 -15
-73 -92 -101 -106 -39 -21 -125 -18 -175 4 -23 11 -60 35 -82 55 -21 20 -44
36 -50 36 -12 0 -14 9 -73 320 -22 118 -43 218 -45 222 -8 12 -34 9 -39 -4 -3
-7 29 -193 70 -413 41 -219 75 -410 75 -422 0 -19 -5 -23 -28 -23 l-29 0 -12
109 c-9 90 -24 144 -85 323 -40 119 -76 221 -80 227 -9 14 -33 14 -41 1 -3 -5
26 -103 64 -217 l71 -207 -23 -30 c-92 -121 -384 -87 -454 54 -27 51 -29 92
-8 110 25 21 17 53 -26 105 -60 72 -101 160 -102 215 -1 67 27 109 97 144 52
27 69 30 189 35 l132 6 3 27 c4 35 -25 48 -109 48 -58 0 -60 1 -54 23 15 48
76 145 129 203 155 171 356 227 527 148z m592 -221 c21 -20 19 -22 -35 -34
-25 -6 -56 -23 -74 -40 l-32 -31 -39 20 c-21 11 -44 32 -51 46 -11 25 -10 26
41 40 101 29 157 28 190 -1z m406 -112 c57 -30 117 -95 153 -168 l31 -63 45 0
c60 0 82 -20 82 -74 0 -46 -25 -100 -76 -162 -32 -40 -33 -43 -27 -112 l6 -71
-39 -39 c-61 -60 -137 -85 -254 -80 l-95 3 -3 -27 c-4 -34 -79 -82 -219 -139
-54 -22 -102 -44 -107 -49 -6 -6 -34 -10 -64 -10 l-54 0 29 24 c16 14 45 26
64 28 27 2 35 8 37 27 5 34 -5 40 -93 51 -43 5 -89 17 -102 25 -42 28 -27 87
39 162 l20 21 48 -30 c59 -37 94 -35 98 5 3 22 -3 31 -29 45 -253 138 -277
321 -56 426 40 19 99 40 132 47 77 16 82 19 103 59 37 73 156 135 244 126 26
-3 65 -14 87 -25z m-2913 -82 c60 -64 174 -147 272 -198 99 -50 120 -66 108
-79 -9 -8 -143 59 -227 113 -74 48 -202 160 -207 181 -6 25 23 15 54 -17z
m871 -146 c-3 -93 -11 -186 -17 -208 -6 -22 -15 -56 -19 -76 -10 -46 -21 -63
-32 -52 -5 5 0 42 12 89 16 59 22 120 26 247 5 140 8 167 21 167 13 0 14 -22
9 -167z m-147 78 c19 -102 10 -251 -15 -251 -9 0 -11 23 -8 93 3 50 0 118 -6
151 -11 58 -7 86 10 69 5 -5 13 -33 19 -62z m370 -664 c116 -131 378 -168 506
-71 l32 23 6 -31 c3 -17 6 -46 6 -64 l0 -34 -287 0 -288 0 -63 92 -62 92 45
12 c25 6 48 14 52 17 10 11 14 9 53 -36z m799 -32 c52 -18 154 -19 196 -1 28
12 31 10 70 -31 23 -24 49 -43 58 -43 26 0 21 -12 -17 -42 l-35 -28 -178 0
-179 0 -12 83 c-7 45 -15 93 -19 106 l-6 23 39 -26 c21 -14 59 -32 83 -41z
m1336 -235 c742 -17 1362 -44 1870 -80 463 -34 426 -29 461 -64 55 -55 67
-189 41 -442 -16 -144 -30 -174 -82 -174 -52 0 -59 27 -39 143 11 66 14 122
10 197 -11 189 -15 207 -51 245 -28 30 -39 35 -78 35 -39 0 -51 -6 -91 -42
-40 -37 -49 -53 -66 -118 -22 -84 -25 -172 -10 -270 14 -89 62 -257 105 -365
39 -100 39 -135 2 -192 -35 -52 -89 -76 -182 -81 -45 -2 -106 1 -138 8 -71 14
-170 63 -197 97 -26 33 -25 103 2 188 34 106 69 333 75 485 5 135 4 149 -16
196 -29 67 -64 100 -135 124 -82 29 -129 34 -231 21 -66 -8 -107 -19 -154 -43
-99 -50 -99 -48 -72 -340 35 -388 57 -513 112 -629 36 -76 34 -109 -6 -127
-37 -17 -118 -15 -166 4 -33 14 -45 26 -60 61 -17 39 -19 70 -19 241 0 441
-45 709 -138 818 -33 39 -101 56 -208 52 -92 -3 -101 -5 -136 -33 -26 -20 -38
-38 -38 -55 -1 -61 43 -361 60 -417 26 -82 26 -131 -2 -160 -44 -46 -174 -20
-215 44 -16 24 -17 46 -14 178 7 210 6 242 -1 313 -10 85 -25 113 -78 140 -58
30 -146 27 -188 -6 -82 -67 -202 -87 -336 -58 -41 10 -78 22 -81 27 -4 5 -23
18 -43 28 -146 72 -272 -11 -272 -181 0 -34 9 -120 21 -191 22 -136 20 -205
-7 -232 -44 -44 -169 -38 -214 10 -20 21 -22 31 -16 82 15 144 18 280 7 335
-14 67 -50 104 -144 149 -131 62 -256 61 -353 -4 -65 -43 -155 -56 -389 -56
-216 -1 -296 9 -367 45 -89 45 -244 68 -291 43 -53 -29 -58 -46 -52 -164 16
-303 46 -470 103 -583 35 -69 38 -88 20 -127 -35 -77 -208 -86 -306 -16 -50
35 -53 72 -21 287 31 203 46 417 35 477 -8 41 -55 101 -95 121 -74 37 -168 20
-221 -41 l-33 -37 6 -265 c6 -327 33 -490 108 -672 22 -54 25 -74 19 -107 -16
-87 -67 -124 -172 -123 -80 0 -151 25 -199 70 -47 45 -49 71 -13 142 89 177
92 451 6 669 -14 36 -36 81 -49 100 -13 19 -23 40 -23 47 0 7 -12 15 -27 18
-16 4 -101 31 -191 62 -194 66 -225 67 -280 7 l-35 -38 7 -121 c16 -300 26
-392 45 -455 55 -174 -3 -262 -129 -197 -26 12 -53 36 -64 55 l-19 34 29 86
29 87 -2 235 c-2 260 -8 287 -63 334 -60 50 -145 54 -208 11 -70 -50 -83 -185
-31 -322 10 -27 -4 -71 -26 -79 -23 -9 -63 4 -87 28 -18 18 -20 28 -15 82 8
87 -13 205 -46 255 -88 132 -312 114 -383 -32 l-25 -52 12 -159 c6 -87 8 -196
4 -241 -6 -73 -10 -86 -35 -110 -23 -22 -34 -26 -58 -20 -17 3 -35 12 -40 18
-36 43 -41 520 -7 619 9 27 21 51 26 54 51 31 1285 90 2389 113 541 12 2180
12 2675 1z m-567 -131 c66 -52 277 -84 383 -59 71 17 130 44 151 69 20 23 72
28 110 10 18 -8 27 -26 41 -82 16 -65 16 -89 6 -244 -6 -95 -8 -188 -5 -207 4
-19 22 -57 41 -85 19 -28 35 -62 35 -77 0 -81 199 -156 322 -120 86 25 92 36
85 163 -4 92 -12 129 -51 251 -55 173 -58 205 -16 227 42 22 52 19 81 -23 73
-104 104 -288 94 -556 -13 -335 -13 -336 21 -402 42 -86 92 -117 191 -122 100
-6 201 20 209 53 3 12 21 29 40 38 43 21 74 71 74 120 0 22 -12 62 -29 95 -55
110 -77 223 -111 597 -19 198 -19 217 -5 246 26 50 89 72 209 71 138 0 192
-20 224 -82 22 -42 23 -53 19 -180 -5 -139 -32 -317 -66 -443 -23 -85 -35
-162 -32 -197 13 -118 202 -220 407 -220 181 0 289 73 315 214 10 55 9 61 -41
197 -74 205 -94 293 -94 424 -1 103 1 114 29 170 42 83 63 82 92 -5 29 -86 30
-205 2 -366 -23 -130 -21 -154 10 -154 11 0 21 -4 23 -10 2 -5 36 -12 76 -16
l72 -7 40 42 40 42 0 -78 c0 -226 -72 -460 -166 -542 l-35 -31 -3608 0 -3609
0 -35 39 c-45 50 -105 152 -129 221 -42 122 -59 319 -39 455 l7 50 9 -84 c6
-70 12 -88 31 -106 17 -16 24 -33 24 -58 0 -49 38 -91 101 -112 73 -25 126
-15 165 28 29 31 33 43 39 123 11 122 0 288 -25 418 -12 60 -19 114 -16 122 7
17 99 44 151 44 28 0 54 -8 78 -24 19 -13 37 -22 40 -20 9 10 16 -100 7 -117
-17 -32 -11 -94 13 -130 12 -19 42 -44 67 -57 97 -50 190 -2 205 107 5 38 3
57 -7 74 -20 30 -30 135 -17 179 7 27 17 39 41 47 43 15 99 -12 110 -54 5 -16
11 -120 14 -230 6 -196 6 -201 -20 -280 -44 -137 -32 -209 47 -269 113 -87
261 -61 298 51 15 45 6 162 -16 223 -16 44 -24 111 -47 378 -10 130 -10 134
10 155 20 19 26 20 69 10 27 -6 108 -32 180 -58 146 -52 147 -53 191 -165 79
-202 78 -408 -3 -604 -19 -47 -35 -97 -35 -111 0 -113 152 -215 319 -215 110
0 175 29 221 99 41 62 39 134 -8 276 -71 211 -92 365 -92 672 0 178 1 183 23
197 46 29 101 24 139 -15 l31 -30 -5 -127 c-3 -70 -20 -229 -39 -353 l-33
-227 19 -37 c72 -135 306 -190 436 -102 74 50 101 156 58 227 -59 97 -82 194
-104 450 -16 176 -14 224 8 233 22 8 134 -20 190 -48 84 -40 186 -54 407 -55
281 0 439 27 482 83 15 19 26 22 85 21 78 -1 157 -28 223 -75 l42 -31 -7 -146
c-13 -266 -13 -283 13 -319 73 -102 300 -103 362 -1 31 51 33 128 10 278 -20
128 -22 218 -4 264 9 24 63 47 93 40 14 -3 36 -14 49 -25z m-4462 -1344 c10
-8 30 -15 44 -15 24 0 24 -1 -7 -20 -20 -12 -43 -40 -58 -72 l-26 -53 12 -159
c6 -87 8 -196 4 -241 -6 -73 -10 -86 -35 -110 -23 -22 -34 -26 -58 -20 -17 3
-35 12 -40 18 -38 45 -41 525 -5 622 13 36 25 51 43 56 44 12 106 9 126 -6z
m7484 -32 c51 -57 62 -195 37 -439 -16 -148 -30 -177 -85 -172 -35 3 -37 5
-55 63 -30 99 -33 216 -8 314 31 124 29 162 -13 205 -29 31 -40 36 -78 36 -37
0 -52 -6 -87 -36 -51 -44 -76 -90 -90 -169 -30 -162 5 -375 118 -710 28 -82
51 -160 51 -172 0 -27 -43 -43 -119 -43 -67 0 -170 25 -191 46 -13 12 -15 67
-15 357 -1 363 -6 410 -55 557 -23 71 -51 106 -119 151 l-44 29 297 0 c232 0
298 3 302 13 3 9 21 11 65 7 52 -5 66 -11 89 -37z m-6877 -3 c-18 -10 -42 -39
-54 -62 -22 -43 -22 -44 -10 -288 6 -135 17 -289 23 -342 8 -77 8 -101 -2
-113 -15 -18 -83 -20 -98 -2 -6 7 -12 123 -15 287 -5 262 -15 382 -39 442 -6
15 -28 44 -49 63 l-39 35 157 0 158 0 -32 -20z m1727 10 c0 -5 -10 -19 -22
-30 -21 -19 -23 -32 -27 -146 -4 -149 9 -233 54 -339 70 -170 65 -205 -33
-205 -68 0 -133 27 -158 64 -16 25 -16 34 1 152 14 99 16 155 10 272 -4 81
-11 155 -16 165 -14 25 -57 21 -141 -12 -149 -60 -302 -75 -456 -46 -44 9
-151 40 -239 70 -201 70 -236 71 -302 6 -27 -26 -31 -37 -31 -84 0 -124 24
-333 56 -490 18 -93 37 -197 40 -232 6 -61 6 -63 -21 -81 -56 -36 -165 -10
-186 44 -8 19 -8 102 0 277 11 265 6 471 -11 520 -14 38 -35 63 -73 86 -29 19
-13 19 763 19 500 0 792 -4 792 -10z m1111 -17 c-19 -26 -20 -54 -28 -508 -10
-550 -8 -540 -93 -583 -39 -20 -57 -23 -130 -20 -98 4 -166 31 -201 80 -22 30
-22 31 -9 244 15 240 5 438 -30 596 -24 110 -39 139 -96 183 l-47 35 327 0
327 0 -20 -27z m806 -3 c-9 -23 -7 -95 6 -302 10 -150 23 -304 30 -343 6 -38
11 -96 12 -128 0 -54 -3 -61 -33 -88 -28 -25 -40 -29 -92 -29 -69 0 -123 19
-139 48 -16 29 -14 97 6 210 21 123 21 358 0 507 -14 99 -18 112 -44 132 l-28
23 147 0 146 0 -11 -30z m285 3 c39 -42 55 -81 67 -163 29 -211 21 -481 -25
-779 -35 -228 -28 -259 66 -292 55 -18 52 -18 -680 -18 -631 1 -726 2 -675 14
138 30 217 89 174 132 -7 7 -4 29 10 74 17 58 20 102 24 448 l5 383 24 25 c40
43 84 55 173 50 82 -5 235 -48 260 -73 30 -31 30 -260 -1 -439 -31 -177 -15
-247 66 -301 35 -23 55 -28 125 -32 72 -4 90 -1 130 18 71 34 100 85 100 174
0 39 -6 105 -12 146 -19 113 -46 528 -39 583 11 79 9 77 100 77 77 0 84 -2
108 -27z m411 -270 c7 -393 30 -540 120 -765 l44 -108 -31 -10 c-53 -17 -237
-32 -311 -25 -38 4 -85 13 -104 21 -39 16 -39 3 -2 244 55 365 45 801 -20 907
l-21 33 160 0 159 0 6 -297z m250 232 c16 -59 16 -83 6 -250 -14 -207 -7 -244
51 -300 20 -19 30 -39 30 -58 0 -58 97 -116 222 -132 77 -10 157 14 193 57 24
28 26 36 20 82 -11 80 -33 167 -75 302 -22 69 -40 141 -40 160 0 32 4 37 47
56 88 39 208 4 315 -92 l51 -46 5 -79 c7 -132 -36 -328 -128 -579 -51 -139
-51 -164 -3 -217 46 -51 94 -75 171 -88 100 -16 179 9 265 85 43 39 58 65 51
91 -4 16 0 22 20 27 32 8 93 60 112 97 22 44 17 111 -15 191 -39 98 -67 215
-92 383 -26 176 -29 276 -9 300 76 92 347 29 410 -95 55 -109 74 -294 65 -625
-8 -289 -3 -331 43 -363 44 -32 121 -53 212 -59 102 -6 162 8 202 47 41 41 37
85 -22 258 -95 275 -138 485 -127 625 8 113 52 197 103 197 39 0 45 -28 23
-111 -27 -101 -35 -214 -20 -291 16 -83 49 -196 60 -202 5 -3 41 -9 80 -12
l71 -7 40 42 40 42 0 -78 c0 -226 -72 -460 -166 -542 l-35 -31 -1182 1 c-1145
0 -1180 1 -1115 18 120 31 133 68 72 211 -89 210 -114 367 -121 753 l-6 297
80 0 79 0 17 -65z m266 -37 c20 -164 42 -279 62 -333 26 -68 25 -123 -3 -152
-45 -48 -183 -21 -225 44 -19 29 -21 60 -14 318 2 77 1 159 -2 183 l-6 42 88
0 87 0 13 -102z m862 70 c-38 -40 -39 -59 -11 -274 28 -216 55 -342 96 -449
38 -96 42 -136 19 -172 -27 -40 -73 -57 -155 -57 -86 1 -143 14 -191 47 -29
19 -34 29 -35 62 -1 22 7 57 18 78 60 119 98 280 98 414 0 112 -17 193 -59
273 -23 46 -37 59 -82 82 l-54 27 193 0 193 1 -30 -32z m-5574 -64 c33 -21 38
-75 33 -359 -8 -479 -8 -469 20 -507 21 -27 25 -44 25 -98 l0 -65 49 -33 c70
-47 172 -75 251 -70 74 5 110 25 138 79 25 47 17 198 -23 433 -31 187 -38 301
-19 355 l11 31 52 -29 c28 -16 79 -39 113 -50 121 -41 320 -23 573 49 58 16
106 30 107 30 7 0 1 -86 -13 -192 -9 -65 -13 -129 -10 -143 4 -14 22 -43 42
-65 77 -85 263 -110 331 -43 11 10 35 18 56 19 51 2 67 18 67 68 0 30 -13 70
-44 132 -68 142 -93 273 -65 352 9 28 20 34 76 52 80 25 146 25 198 1 54 -24
62 -35 87 -127 19 -71 21 -104 21 -329 0 -165 -5 -304 -17 -408 -10 -101 -13
-164 -7 -175 19 -35 53 -56 119 -73 65 -17 14 -18 -1464 -18 l-1532 -1 -35 39
c-45 50 -105 152 -129 221 -42 122 -59 319 -39 455 l7 50 9 -84 c6 -70 12 -88
31 -106 17 -16 24 -33 24 -58 0 -49 38 -91 101 -112 73 -25 126 -15 165 28 29
31 33 43 39 123 11 122 0 288 -25 418 -12 60 -19 114 -16 122 3 7 31 21 62 30
68 20 152 14 192 -13 15 -9 30 -17 33 -16 14 4 29 -213 29 -423 0 -191 3 -230
16 -254 25 -42 64 -60 129 -60 53 0 60 3 96 39 44 43 47 66 29 191 -18 135
-33 513 -21 557 17 60 67 75 128 37z"/>
</g>
</svg>
